<svg width="48" height="48" viewBox="0 0 48 48" fill="none" xmlns="http://www.w3.org/2000/svg">
<rect width="48" height="48" rx="24" fill="#393E46"/>
<rect width="24" height="24" transform="translate(12 12)" fill="#393E46"/>
<path d="M28 34.027V31.157C28.0375 30.6802 27.973 30.2008 27.811 29.7508C27.6489 29.3008 27.3929 28.8905 27.06 28.547C30.2 28.197 33.5 27.007 33.5 21.547C33.4997 20.1509 32.9626 18.8082 32 17.797C32.4558 16.5755 32.4236 15.2254 31.91 14.027C31.91 14.027 30.73 13.677 28 15.507C25.708 14.8859 23.2919 14.8859 21 15.507C18.27 13.677 17.09 14.027 17.09 14.027C16.5763 15.2254 16.5441 16.5755 17 17.797C16.0301 18.8157 15.4925 20.1705 15.5 21.577C15.5 26.997 18.8 28.187 21.94 28.577C21.611 28.917 21.3572 29.3224 21.1953 29.767C21.0333 30.2115 20.9668 30.6851 21 31.157V34.027" stroke="#C1C2C4" stroke-width="1.5" stroke-linecap="round" stroke-linejoin="round"/>
<path d="M21 32.0271C18 33.0001 15.5 32.0271 14 29.0271" stroke="#C1C2C4" stroke-width="1.5" stroke-linecap="round" stroke-linejoin="round"/>
</svg>
