<svg width="48" height="48" viewBox="0 0 48 48" fill="none" xmlns="http://www.w3.org/2000/svg">
<rect width="48" height="48" rx="24" fill="#393E46"/>
<path d="M33.4983 13.9876C33.2229 14.0077 32.9526 14.0723 32.6979 14.1789H32.6945C32.45 14.2759 31.2877 14.7648 29.5206 15.506L23.1882 18.1729C18.6444 20.0858 14.1778 21.9696 14.1778 21.9696L14.231 21.949C14.231 21.949 13.923 22.0502 13.6013 22.2707C13.4026 22.3971 13.2316 22.5626 13.0987 22.7571C12.9408 22.9887 12.8139 23.3429 12.8611 23.7092C12.9383 24.3286 13.3397 24.7 13.6279 24.905C13.9196 25.1126 14.1975 25.2095 14.1975 25.2095H14.2044L18.3931 26.6206C18.5809 27.2237 19.6695 30.8025 19.9311 31.6268C20.0855 32.1192 20.2357 32.4272 20.4235 32.6622C20.5144 32.7823 20.6208 32.8827 20.7486 32.9633C20.8151 33.0019 20.8859 33.0325 20.9596 33.0542L20.9168 33.0439C20.9296 33.0474 20.9399 33.0577 20.9494 33.0611C20.9837 33.0705 21.0068 33.0739 21.0506 33.0808C21.7137 33.2815 22.2464 32.8698 22.2464 32.8698L22.2764 32.8458L24.7495 30.594L28.8944 33.7739L28.9888 33.8142C29.8526 34.1934 30.7275 33.9824 31.1899 33.6101C31.6557 33.2352 31.8367 32.7557 31.8367 32.7557L31.8667 32.6785L35.0698 16.2694C35.1607 15.8645 35.1839 15.4854 35.0835 15.1174C34.98 14.7449 34.7411 14.4246 34.4136 14.2193C34.1386 14.0521 33.8197 13.9714 33.4983 13.9876ZM33.4116 15.7462C33.4082 15.8002 33.4185 15.7942 33.3945 15.898V15.9074L30.2214 32.1458C30.2077 32.169 30.1846 32.2196 30.1211 32.2702C30.0542 32.3234 30.001 32.3568 29.7222 32.2462L24.6525 28.3594L21.5901 31.1507L22.2335 27.0418L30.5165 19.3215C30.8579 19.0041 30.7438 18.9372 30.7438 18.9372C30.7679 18.5478 30.2283 18.8231 30.2283 18.8231L19.7836 25.2936L19.7802 25.2764L14.774 23.5908V23.5874L14.7611 23.5848C14.7699 23.5819 14.7785 23.5785 14.7868 23.5745L14.8143 23.5608L14.8409 23.5514C14.8409 23.5514 19.3109 21.6676 23.8548 19.7547C26.1297 18.7965 28.4218 17.8315 30.1846 17.0869C31.23 16.6469 32.2765 16.2094 33.3241 15.7745C33.3945 15.747 33.361 15.7462 33.4116 15.7462Z" fill="#C1C2C4"/>
</svg>
